<?xml version="1.0" standalone="no"?><!DOCTYPE svg PUBLIC "-//W3C//DTD SVG 1.1//EN" "http://www.w3.org/Graphics/SVG/1.1/DTD/svg11.dtd"><svg t="1714712646141" class="icon" viewBox="0 0 1053 1024" version="1.1" xmlns="http://www.w3.org/2000/svg" p-id="28968" xmlns:xlink="http://www.w3.org/1999/xlink" width="20.56640625" height="20"><path d="M497.301 957.856c-147.965-18.128-275.353-100.93-351.54-228.807-26.458-44.34-48.26-102.645-59.284-159.48-3.43-17.148-4.41-34.786-4.41-78.392 0-49.485 0.735-59.774 5.88-85.742 33.561-169.768 151.395-290.051 320.428-327.533 20.333-4.654 31.847-5.39 76.678-5.39 58.794-0.244 77.412 2.696 129.347 19.599 60.754 20.333 108.524 50.22 156.295 97.745 58.794 58.55 93.58 123.468 111.464 207.005 7.594 34.542 8.329 114.16 1.47 147.476-3.92 19.353-3.92 22.293-0.49 28.662 4.164 8.33 3.92 8.084 62.469 23.518 44.34 11.759 49.73 14.453 52.914 27.437 3.43 13.719-28.417 84.762-57.569 128.123-71.533 106.81-182.997 179.077-312.59 202.35-25.967 4.654-104.114 6.614-131.062 3.43z m113.914-169.033c54.14-11.024 103.135-36.256 145.271-74.718 29.397-26.947 61.98-74.227 75.208-109.749 12.494-33.317 13.473-32.582-77.168-55.855-25.722-6.859-30.377-13.963-26.457-41.89 10.044-70.799-17.393-148.946-70.798-200.636-83.537-81.332-212.64-91.62-306.955-24.497-69.573 49.485-106.32 129.592-102.155 223.173 3.43 79.127 33.806 147.72 89.906 203.33 71.288 71.043 173.688 101.175 273.148 80.842z" fill="#5A20E0" p-id="28969"></path></svg>