<?xml version="1.0" standalone="no"?><!DOCTYPE svg PUBLIC "-//W3C//DTD SVG 1.1//EN" "http://www.w3.org/Graphics/SVG/1.1/DTD/svg11.dtd"><svg t="1713101005956" class="icon" viewBox="0 0 1024 1024" version="1.1" xmlns="http://www.w3.org/2000/svg" p-id="3979" xmlns:xlink="http://www.w3.org/1999/xlink" width="20" height="20"><path d="M517.89824 654.05952a16.19968 16.19968 0 0 1-9.70752-2.12992L122.34752 412.0576a23.9616 23.9616 0 0 1 0-38.51264l385.8432-227.03104a13.45536 13.45536 0 0 1 17.408 0l385.92512 229.15072a24.00256 24.00256 0 0 1 0 38.5536l-383.88736 235.52a14.1312 14.1312 0 0 1-9.70752 4.25984z m-345.088-259.072l345.088 211.968 345.088-211.968-345.088-205.53728z" p-id="3980"></path><path d="M516.49536 784.52736a17.28512 17.28512 0 0 1-9.65632-1.95584L122.2656 566.89664a21.59616 21.59616 0 0 1-7.74144-27.2384 19.54816 19.54816 0 0 1 27.06432-7.74144l374.90688 209.83808 374.90688-209.79712a19.456 19.456 0 0 1 27.06432 7.74144 19.78368 19.78368 0 0 1-7.74144 27.2384L526.15168 782.56128a14.27456 14.27456 0 0 1-9.65632 1.96608z" p-id="3981"></path><path d="M516.49536 912.18944a17.3056 17.3056 0 0 1-9.65632-1.95584L122.2656 694.55872a21.59616 21.59616 0 0 1-7.74144-27.2384 19.54816 19.54816 0 0 1 27.06432-7.74144l374.90688 209.83808 374.90688-209.78688a19.456 19.456 0 0 1 27.06432 7.74144 19.78368 19.78368 0 0 1-7.74144 27.2384L526.15168 910.2336a14.336 14.336 0 0 1-9.65632 1.95584z" p-id="3982"></path></svg>