<?xml version="1.0" standalone="no"?><!DOCTYPE svg PUBLIC "-//W3C//DTD SVG 1.1//EN" "http://www.w3.org/Graphics/SVG/1.1/DTD/svg11.dtd"><svg t="1713349333377" class="icon" viewBox="0 0 1024 1024" version="1.1" xmlns="http://www.w3.org/2000/svg" p-id="7510" xmlns:xlink="http://www.w3.org/1999/xlink" width="20" height="20"><path d="M755.809524 438.857143a219.428571 219.428571 0 1 1 0 438.857143 219.428571 219.428571 0 0 1 0-438.857143z m48.761905-268.190476a73.142857 73.142857 0 0 1 73.142857 73.142857l0.024381 148.455619a290.425905 290.425905 0 0 0-73.142857-22.503619L804.571429 243.809524H170.666667v536.380952l319.122285 0.024381c12.288 26.819048 28.525714 51.44381 47.957334 73.142857L170.666667 853.333333a73.142857 73.142857 0 0 1-73.142857-73.142857V243.809524a73.142857 73.142857 0 0 1 73.142857-73.142857h633.904762z m-48.761905 341.333333a146.285714 146.285714 0 1 0 0 292.571429 146.285714 146.285714 0 0 0 0-292.571429z m-0.926476 43.885714l89.234285 104.984381c13.360762 15.750095 11.459048 39.375238-4.291047 52.760381-8.850286 5.851429-10.630095 7.021714-17.724953 8.070095l-6.509714 0.828953H653.409524v-73.142857h84.943238l-39.204572-46.128762 55.734858-47.372191z m-410.502096 81.066667v73.142857h-103.619047v-73.142857h103.619047z m73.142858-146.285714v73.142857h-176.761905v-73.142857h176.761905z m121.904761-170.666667v73.142857H240.761905v-73.142857h298.666666z" p-id="7511"></path></svg>