<svg class="icon" viewBox="0 0 1024 1024" version="1.1" xmlns="http://www.w3.org/2000/svg" width="20" height="20">
    <path d="M260.651401 207.933823c3.074263-6.148527 130.248382 109.816033 210.262883 211.475858 129.077234 164.002539-117.930416 136.522389-246.108376 299.332867-60.899693 77.358505 0.878361 271.016183 418.141644 261.939786-6.399487-3.17883-338.963677-145.285085-59.728545-235.756264 127.153206-41.199312 267.670046-142.691829 179.206549-327.419505-40.613738-84.803659-149.467757-166.616709-274.780587-248.848025-109.585986-71.921032-131.41953-78.592393-131.41953-78.592393l-95.574038 117.867676z" fill="#CED3FF"></path>
    <path d="M277.486653 204.064852l99.505748-117.846762 76.584711 71.502765-87.501483 108.665798-88.588976-62.321801z" fill="#FFFFFF"></path>
    <path d="M309.902355 231.440435l-76.27101-1.171148S203.139671 211.259047 209.727379 164.789569C215.353071 125.326066 241.20198 20.299191 353.109349 20.717458c0 0 67.445574 66.211686 36.096452 136.752436l-79.303446 73.970541z" fill="#CED3FF"></path>
</svg>
