<?xml version="1.0" standalone="no"?><!DOCTYPE svg PUBLIC "-//W3C//DTD SVG 1.1//EN" "http://www.w3.org/Graphics/SVG/1.1/DTD/svg11.dtd"><svg t="1712035046830" class="icon" viewBox="0 0 1024 1024" version="1.1" xmlns="http://www.w3.org/2000/svg" p-id="4967" xmlns:xlink="http://www.w3.org/1999/xlink" width="20" height="20"><path d="M141.824 35.84h740.864c58.368 0 105.984 47.616 105.984 105.984V670.72c0 58.368-47.616 105.984-105.984 105.984H141.824C83.456 776.704 35.84 729.088 35.84 670.72V141.824C35.84 83.456 83.456 35.84 141.824 35.84z m0 105.984V670.72h740.864V141.824H141.824zM88.576 882.176h846.336c29.184 0 52.736 23.552 52.736 52.736 0 29.184-23.552 52.736-52.736 52.736H88.576C59.392 988.16 35.84 964.608 35.84 935.424c0-29.184 23.552-53.248 52.736-53.248z m423.424-476.16c29.184 0 52.736 23.552 52.736 52.736V512c0 29.184-23.552 52.736-52.736 52.736-29.184 0-52.736-23.552-52.736-52.736V459.264c0-29.184 23.552-53.248 52.736-53.248zM723.456 353.28c29.184 0 52.736 23.552 52.736 52.736V512c0 29.184-23.552 52.736-52.736 52.736-29.184 0-52.736-23.552-52.736-52.736V406.016c0-29.184 23.552-52.736 52.736-52.736zM300.544 247.296C329.728 247.296 353.28 271.36 353.28 300.544V512c0 29.184-23.552 52.736-52.736 52.736s-52.736-23.552-52.736-52.736V300.544C247.296 271.36 271.36 247.296 300.544 247.296z" p-id="4968"></path></svg>