<?xml version="1.0" standalone="no"?><!DOCTYPE svg PUBLIC "-//W3C//DTD SVG 1.1//EN" "http://www.w3.org/Graphics/SVG/1.1/DTD/svg11.dtd"><svg t="1713597702952" class="icon" viewBox="0 0 1024 1024" version="1.1" xmlns="http://www.w3.org/2000/svg" p-id="1876" xmlns:xlink="http://www.w3.org/1999/xlink" width="20" height="20"><path d="M512 160c194.410667 0 352 157.589333 352 352S706.410667 864 512 864 160 706.410667 160 512h64l0.064 6.613333C227.584 674.624 355.157333 800 512 800c159.061333 0 288-128.938667 288-288S671.061333 224 512 224a286.72 286.72 0 0 0-202.602667 83.328l0.106667-0.149333 99.818667 100.16H163.562667V160.725333l102.250666 102.592-1.450666-1.493333 7.68-7.338667A350.72 350.72 0 0 1 512 160z" p-id="1877"></path></svg>
