<?xml version="1.0" standalone="no"?><!DOCTYPE svg PUBLIC "-//W3C//DTD SVG 1.1//EN" "http://www.w3.org/Graphics/SVG/1.1/DTD/svg11.dtd"><svg t="1714712678101" class="icon" viewBox="0 0 1024 1024" version="1.1" xmlns="http://www.w3.org/2000/svg" p-id="30831" xmlns:xlink="http://www.w3.org/1999/xlink" width="20" height="20"><path d="M512 0C229.205333 0 0 229.205333 0 512s229.205333 512 512 512 512-229.205333 512-512S794.794667 0 512 0z m265.813333 693.077333a15.829333 15.829333 0 0 1-15.914666 15.872H695.04a15.829333 15.829333 0 0 1-15.872-15.872v-205.994666c0-1.706667-1.962667-2.56-3.413333-1.408l-141.653334 141.653333a31.658667 31.658667 0 0 1-44.501333 0l-141.653333-141.653333c-1.152-1.152-3.413333-0.298667-3.413334 1.408v205.994666a15.829333 15.829333 0 0 1-15.872 15.872H261.802667a15.829333 15.829333 0 0 1-15.872-15.872V330.965333c0-8.789333 7.082667-15.872 15.872-15.872h45.909333a32 32 0 0 1 22.4 9.386667l176.213333 176.213333a7.68 7.68 0 0 0 11.093334 0l176.213333-176.213333c5.973333-5.973333 13.866667-9.386667 22.4-9.386667h45.866667c8.789333 0 15.872 7.082667 15.872 15.872z" fill="#d81e06" p-id="30832"></path></svg>
