<svg t="1709989367494" viewBox="0 0 1024 1024" version="1.1" xmlns="http://www.w3.org/2000/svg" p-id="1367" width="18" height="18"><path d="M383.04 934.72h-272v-832h800v416h-64v-352h-672v704h208v64z" p-id="1368"></path><path d="M303.04 326.72h416v64h-416zM304 502.72h224v64H304zM561.76 870.72h352v64h-352z" p-id="1369"></path><path d="M689.76 822.72h96v64h-96z" p-id="1370"></path><path d="M737.76 846.72a112 112 0 1 1 112-112 112 112 0 0 1-112 112z m0-160a48 48 0 1 0 48 48 48 48 0 0 0-48-48z" p-id="1371"></path></svg>
