<?xml version="1.0" standalone="no"?><!DOCTYPE svg PUBLIC "-//W3C//DTD SVG 1.1//EN" "http://www.w3.org/Graphics/SVG/1.1/DTD/svg11.dtd"><svg t="1713597705917" class="icon" viewBox="0 0 1024 1024" version="1.1" xmlns="http://www.w3.org/2000/svg" p-id="2042" xmlns:xlink="http://www.w3.org/1999/xlink" width="20" height="20"><path d="M512 160C317.589333 160 160 317.589333 160 512S317.589333 864 512 864 864 706.410667 864 512h-64l-0.064 6.613333C796.416 674.624 668.842667 800 512 800c-159.061333 0-288-128.938667-288-288S352.938667 224 512 224a286.72 286.72 0 0 1 202.602667 83.328l-0.106667-0.149333-99.818667 100.16h245.76V160.725333l-102.250666 102.592 1.450666-1.493333-7.68-7.338667A350.72 350.72 0 0 0 512 160z" p-id="2043"></path></svg>
