<?xml version="1.0" standalone="no"?><!DOCTYPE svg PUBLIC "-//W3C//DTD SVG 1.1//EN" "http://www.w3.org/Graphics/SVG/1.1/DTD/svg11.dtd"><svg t="1713336575421" class="icon" viewBox="0 0 1137 1024" version="1.1" xmlns="http://www.w3.org/2000/svg" p-id="5055" xmlns:xlink="http://www.w3.org/1999/xlink" width="22.20703125" height="20"><path d="M1097.73824 265.898667L994.996907 39.480889A66.503111 66.503111 0 0 0 934.524018 0H168.401351C142.232462 0 118.452907 15.815111 107.928462 42.097778L7.974684 265.898667A53.077333 53.077333 0 0 0 0.01024 294.855111V952.888889C0.01024 992.426667 28.966684 1024 68.447573 1024h971.377778c39.480889 0 68.437333-34.247111 68.437333-71.111111V294.912c-2.673778-7.964444-5.290667-18.432-10.524444-29.013333zM568.614684 389.575111l189.553778 226.417778c5.233778 5.233778 5.233778 13.141333 2.616889 21.048889-2.616889 7.907556-10.524444 10.524444-18.432 10.524444h-107.918222c-10.524444 0-21.048889 7.907556-21.048889 18.432v194.787556a20.081778 20.081778 0 0 1-5.290667 13.198222 20.138667 20.138667 0 0 1-13.141333 5.233778H510.701796c-10.524444 0-21.048889-7.907556-21.048889-18.432v-194.787556a20.081778 20.081778 0 0 0-5.290667-13.141333 20.081778 20.081778 0 0 0-13.141333-5.290667H363.302684c-7.964444 0-13.198222-2.616889-18.432-10.524444-2.673778-7.907556-2.673778-15.815111 2.616889-21.048889l189.553778-226.417778c5.233778-5.233778 10.524444-7.850667 15.758222-7.850667 5.290667 0 10.524444 2.616889 15.815111 7.850667z m408.007112-126.293333H123.743573a14.449778 14.449778 0 0 1-13.198222-7.964445 16.782222 16.782222 0 0 1 0-15.758222L184.33024 81.578667a14.449778 14.449778 0 0 1 13.141333-7.850667h705.479111c5.290667 0 10.581333 2.616889 13.198223 7.850667l73.671111 160.597333c2.673778 5.290667 2.673778 10.524444 0 13.141333a14.506667 14.506667 0 0 1-13.084445 7.964445z" p-id="5056"></path></svg>
