<svg viewBox="0 0 1024 1024" version="1.1" xmlns="http://www.w3.org/2000/svg" p-id="42084" width="20" height="20"><path d="M846.5 569.5l-3.7-25.5c-4.1-28.2-11.8-55.6-22.8-81.6-16.8-39.7-40.9-75.5-71.5-106.2-8.4-8.4-25.1-24.2-36.7-33.3l-14.9-11.7c3.8-14.3 5.8-29.2 5.8-44.7 0-96.2-78.2-174.4-174.4-174.4s-174.4 78.2-174.4 174.3c0 9.2 0.7 18.2 2.1 27.1l-16.4 10.4c-23.1 14.7-48.8 37.4-63.8 52.4-30.8 30.8-54.9 66.6-71.6 106.2-11.5 27.2-19.3 55.6-23.1 84.5l-2.9 21.6C115.5 595 71.4 657.1 71.4 729.3c0 96.2 78.2 174.4 174.4 174.4 33.4 0 64.6-9.4 91.1-25.7l19.5 10.2c9 4.7 17.4 8.7 25.6 12.1 41.2 17.5 85 26.3 130.1 26.3 45.1 0 88.8-8.9 130-26.3 6.9-2.9 14-6.2 21.7-10.1l23-11.7c26.3 15.9 57.1 25.1 90 25.1 96.2 0 174.4-78.2 174.4-174.4-0.1-71.3-43.2-132.7-104.7-159.7z m-600.7 60.4c54.8 0 99.4 44.6 99.4 99.4 0 54.8-44.6 99.4-99.4 99.4-54.8 0-99.4-44.6-99.4-99.4 0-54.8 44.6-99.4 99.4-99.4z m530.9 198.8c-54.8 0-99.4-44.6-99.4-99.4 0-54.8 44.6-99.4 99.4-99.4 54.7 0 99.3 44.6 99.4 99.4 0 54.9-44.6 99.4-99.4 99.4zM528.3 167.1c54.8 0 99.4 44.5 99.4 99.3s-44.6 99.4-99.4 99.4c-54.8 0-99.4-44.5-99.4-99.3s44.6-99.4 99.4-99.4z m0 273.7c53.4 0 101.2-24.1 133.2-62l8.1 6.6c49 40.1 86.3 101 97.2 158.8l2 10.8c-92.5 4.1-166.5 80.7-166.5 174.2 0 34.7 10.2 67 27.7 94.2l-10 4.6c-34.2 15.7-70.5 23.6-107.9 23.6-39.1 0-76.6-8.5-111.5-25.3l-7.6-3.7c17.2-27 27.2-59 27.2-93.3 0-92.9-73-169.1-164.7-174.1l1.5-8.2c12.2-68.6 57.6-136.4 118.3-176.8l8.8-5.9c31.5 46.2 84.3 76.5 144.2 76.5z" p-id="42085"></path></svg>
