<?xml version="1.0" standalone="no"?><!DOCTYPE svg PUBLIC "-//W3C//DTD SVG 1.1//EN" "http://www.w3.org/Graphics/SVG/1.1/DTD/svg11.dtd"><svg t="1714712872707" class="icon" viewBox="0 0 1024 1024" version="1.1" xmlns="http://www.w3.org/2000/svg" p-id="37656" xmlns:xlink="http://www.w3.org/1999/xlink" width="20" height="20"><path d="M509.471308 109.456256a439.390405 439.390405 0 0 1 70.562558 5.659454L551.495767 270.088429a234.927563 234.927563 0 0 0-45.757291-4.455315c-135.104421 0-244.560677 114.634055-244.560677 255.879586S370.995296 777.392286 505.738476 777.392286a238.058325 238.058325 0 0 0 163.762935-65.505174L770.649106 846.028222a429.396049 429.396049 0 0 1-261.298212 87.540922c-234.20508 0-424.097836-184.47413-424.097837-412.056444S275.266228 109.456256 509.471308 109.456256z" fill="#088AFF" p-id="37657"></path><path d="M600.022578 285.260583a242.874882 242.874882 0 0 1 60.206961 37.689558l115.236124-122.340546a428.432738 428.432738 0 0 0-105.362182-60.206961l-70.080903 144.857949zM747.770461 481.655691a267.559737 267.559737 0 0 1 2.889934 39.495767A274.182502 274.182502 0 0 1 746.566322 565.945437l182.547507 12.041393a410.852305 410.852305 0 0 0 4.094073-57.437441 405.313264 405.313264 0 0 0-4.214487-58.400753L747.770461 481.655691zM701.772342 368.105362a256.842897 256.842897 0 0 1 34.317968 66.348072l200.248354-82.603951a442.400753 442.400753 0 0 0-61.531514-103.555974l-173.034808 120.413923zM708.515522 665.046096l164.124177 132.455315a444.447789 444.447789 0 0 0 66.588899-111.984948l-202.415804-79.232361a259.492004 259.492004 0 0 1-28.297272 58.761994z" fill="#20E2DD" p-id="37658"></path></svg>