<svg t="1709971532289" class="icon" viewBox="0 0 3413 1024" version="1.1" xmlns="http://www.w3.org/2000/svg" p-id="7846" width="200" height="80"><path d="M775.68 93.013333h2482.346667c82.773333 0 124.16 41.301333 124.16 123.818667V773.973333c0 82.517333-41.386667 123.733333-124.074667 123.733334H775.68c-82.773333 0-124.16-41.216-124.16-123.733334V216.746667c0-82.517333 41.386667-123.733333 124.16-123.733334z" fill="#FF0000" p-id="7847"></path><path d="M1627.306667 710.656l160-417.962667h-93.952l-98.048 299.946667c-2.56 6.656-6.656 18.005333-11.946667 34.048a32.768 32.768 0 0 0-2.048 7.936h-1.962667l-13.994666-41.984-104.021334-299.946667h-94.037333l162.048 417.962667h97.962667z m296.106666 0V292.693333h-88.064v417.962667h87.978667z m177.92 0V562.688h80.042667c109.226667 0 163.925333-46.08 163.925333-137.984-4.010667-85.333333-55.978667-129.365333-155.989333-132.010667h-173.994667v417.962667h86.016z m72.021334-215.978667h-72.021334v-133.973333h72.021334c52.053333 1.28 78.677333 23.296 79.957333 65.962667 0 44.032-26.624 66.645333-79.957333 68.010666z m339.968 244.053334c11.946667 0 30.72-0.768 55.978666-2.048h44.032c42.666667-2.645333 63.317333-23.381333 62.037334-62.037334v-23.978666h189.952v-55.978667H2703.36l59.989333-30.037333v-52.053334l15.018667 5.12 20.992 6.912c17.322667 5.376 30.72 10.069333 39.936 14.08 8.021333-20.053333 17.408-41.386667 28.074667-64-72.021333-9.386667-128.682667-26.709333-170.069334-52.053333h158.037334v-55.978667h-196.010667v-32c55.978667 0 111.36-1.365333 165.973333-4.010666l-9.984-55.978667c-125.354667 5.290667-256 8.618667-392.021333 9.984 1.365333 4.010667 2.730667 9.386667 4.010667 15.957333 2.730667 16.042667 4.693333 28.672 5.973333 38.058667l158.037333-2.048v30.037333H2395.306667v55.978667h155.989333c-37.290667 25.344-93.952 44.714667-169.984 58.026667 11.946667 19.968 22.016 40.618667 30.037333 61.952l15.018667-4.949334 20.992-6.997333c11.946667-5.376 20.650667-8.704 25.941333-9.984v43.946667h187.989334l-59.989334 23.978666v5.973334h-215.893333v56.064h215.893333v16.725333c-1.28 10.24-11.264 15.274667-29.952 15.274667h-69.973333c5.290667 14.677333 9.301333 33.28 11.946667 55.978666z m250.026666-226.133334h-269.994666c36.010667-14.592 68.608-33.28 97.962666-55.893333v43.946667h68.010667v-43.946667c27.989333 21.333333 62.634667 39.936 104.021333 55.978667zM267.690667 15.530667L31.061333 312.064H1210.026667L973.482667 15.530667z" fill="#FFFFFF" p-id="7848"></path><path d="M108.629333 312.064h1048.32l-536.405333 682.666667z" fill="#FEC6C6" p-id="7849"></path><path d="M620.629333 868.864l497.578667-556.117333-169.813333-204.117334H292.693333l-169.813333 204.117334 497.578667 556.117333zM249.173333 15.530667h742.826667l249.173333 299.434666-620.544 693.504L0 314.88 249.173333 15.36z" fill="#FF0000" p-id="7850"></path><path d="M404.053333 234.410667h154.282667l74.837333 244.736 77.482667-244.736h149.418667L696.149333 620.629333H564.821333z" fill="#FF0000" p-id="7851"></path></svg>
