<svg t="1709971569073" class="icon" viewBox="0 0 3413 1024" version="1.1" xmlns="http://www.w3.org/2000/svg" p-id="8905" width="200" height="80"><path d="M775.68 93.013333h2482.346667c82.773333 0 124.16 41.301333 124.16 123.818667V773.973333c0 82.517333-41.386667 123.733333-124.074667 123.733334H775.68c-82.773333 0-124.16-41.216-124.16-123.733334V216.746667c0-82.517333 41.386667-123.733333 124.16-123.733334z" fill="#FF0000" p-id="8906"></path><path d="M1627.306667 710.656l160-417.962667h-93.952l-98.048 299.946667c-2.56 6.656-6.656 18.005333-11.946667 34.048a32.768 32.768 0 0 0-2.048 7.936h-1.962667l-13.994666-41.984-104.021334-299.946667h-94.037333l162.048 417.962667h97.962667z m296.106666 0V292.693333h-88.064v417.962667h87.978667z m177.92 0V562.688h80.042667c109.226667 0 163.925333-46.08 163.925333-137.984-4.010667-85.333333-55.978667-129.365333-155.989333-132.010667h-173.994667v417.962667h86.016z m72.021334-215.978667h-72.021334v-133.973333h72.021334c52.053333 1.28 78.677333 23.296 79.957333 65.962667 0 44.032-26.624 66.645333-79.957333 68.010666z m525.994666 246.016V644.693333h165.973334V578.56h-165.973334v-73.984h136.021334v-64h-136.021334v-64h150.016v-64h-290.048l23.978667-44.032-85.930667-7.936a391.68 391.68 0 0 1-112.042666 157.952c11.946667 18.688 24.746667 41.984 37.973333 69.973333l32-33.962666v123.989333h-67.925333v66.048h235.946666V740.693333h75.946667z m-75.946666-300.032h-154.026667c2.56-4.010667 6.656-8.618667 11.946667-13.994666 18.688-22.698667 31.317333-39.253333 37.973333-50.005334h104.106667v64z m0 137.984h-96.085334v-73.984h96v73.984zM267.690667 15.530667L31.061333 312.064H1210.026667L973.482667 15.530667z" fill="#FFFFFF" p-id="8907"></path><path d="M108.629333 312.064h1048.32l-536.405333 682.666667z" fill="#FEC6C6" p-id="8908"></path><path d="M620.629333 868.864l497.578667-556.117333-169.813333-204.117334H292.693333l-169.813333 204.117334 497.578667 556.117333zM249.173333 15.530667h742.826667l249.173333 299.434666-620.544 693.504L0 314.88 249.173333 15.36z" fill="#FF0000" p-id="8909"></path><path d="M404.053333 234.410667h154.282667l74.837333 244.736 77.482667-244.736h149.418667L696.149333 620.629333H564.821333z" fill="#FF0000" p-id="8910"></path></svg>
