<svg t="1709972042123" class="icon" viewBox="0 0 3544 1024" version="1.1" xmlns="http://www.w3.org/2000/svg" p-id="18854" width="200" height="80"><path d="M304.012039 0h2921.167567a110.702703 110.702703 0 0 1 99.078919 61.384649l187.475027 376.665946a166.054054 166.054054 0 0 1 0 147.981837l-187.447351 376.610595a110.702703 110.702703 0 0 1-99.106595 61.384649H304.012039a110.702703 110.702703 0 0 1-99.078919-61.384649L17.402742 586.032432a166.054054 166.054054 0 0 1 0-148.009513L204.93312 61.384649A110.702703 110.702703 0 0 1 304.012039 0.027676z" fill="#5b5959" p-id="18855"></path><path d="M3225.179606 0a110.702703 110.702703 0 0 1 99.078919 61.384649l187.475027 376.665946a166.054054 166.054054 0 0 1 0 147.981837l-187.447351 376.610595a110.702703 110.702703 0 0 1-99.106595 61.384649H304.012039a110.702703 110.702703 0 0 1-99.078919-61.384649L17.402742 586.032432a166.054054 166.054054 0 0 1 0-148.009513L204.93312 61.384649A110.702703 110.702703 0 0 1 304.012039 0.027676h2921.167567z m-39.161081 41.513514H343.17312a110.702703 110.702703 0 0 0-97.944216 59.087567L69.183931 434.591135a166.054054 166.054054 0 0 0 0 154.873081l176.044973 333.962379a110.702703 110.702703 0 0 0 97.944216 59.087567h2842.845405a110.702703 110.702703 0 0 0 97.916541-59.087567l176.072649-333.962379a166.054054 166.054054 0 0 0 0-154.873081l-176.072649-333.990054a110.702703 110.702703 0 0 0-97.916541-59.059892z" fill="#FFFFFF" p-id="18856"></path><path d="M599.145444 312.956541v141.035243H376.799066v48.930594h633.219459v-48.930594h-223.065946v-141.035243h195.722379V264.745514h-162.62227c14.391351-19.428324 27.343568-41.015351 39.576216-65.480649l-49.650162-17.269622a718.820324 718.820324 0 0 1-46.771892 82.750271h-151.109189a653.312 653.312 0 0 0-37.417514-77.713298l-53.967568 8.634811c12.952216 20.867459 25.184865 43.893622 36.697946 69.078487h-153.267891v48.211027h195.00281z m138.156973 0v141.035243h-88.506811v-141.035243h88.506811z m167.659244 18.708756c-15.110919 30.941405-35.258811 61.882811-61.163244 93.543784l41.015352 20.86746c25.184865-30.221838 46.052324-61.882811 61.88281-94.982919l-41.734918-19.428325z m-410.153514 1.439135l-45.332757 15.110919a525.339676 525.339676 0 0 1 49.650162 98.580757l43.893622-19.428324a611.411027 611.411027 0 0 0-48.211027-94.263352zM912.876904 555.450811H472.501552v290.705297h49.650163v-33.819676h341.075027v33.819676h49.650162V555.450811z m-390.725189 212.992v-62.602379h341.075027v62.602379H522.151715z m0-104.337297V598.624865h341.075027v65.480649H522.151715zM1143.858093 198.545297l-35.258811 33.819676c52.528432 40.295784 93.543784 78.432865 123.765622 114.411243l36.697946-35.978378c-33.819676-37.417514-75.554595-74.835027-125.204757-112.252541z m403.788108 635.322811l180.500757 0.055351 12.232648-51.808864-12.177297 0.774919c-17.491027 0.940973-40.074378 1.522162-67.694703 2.103351l-52.251675 0.996324c-17.186595 0.276757-34.096432 0.442811-50.646487 0.442811l-53.718486-0.221405c-33.764324-0.276757-63.321946-0.747243-88.755892-1.21773-43.174054-1.439135-75.554595-7.195676-98.580757-17.269622-20.147892-9.354378-38.856649-24.465297-56.12627-45.332757a121.717622 121.717622 0 0 0-17.989189-16.550054V436.722162h-150.389622v47.49146h102.178595V702.962162c-29.50227 12.952216-63.321946 49.650162-101.459027 110.093838l38.856648 35.258811c39.576216-66.200216 68.358919-99.300324 85.628541-99.300325 8.634811 0 17.989189 5.756541 28.063135 17.98919 22.306595 25.904432 48.211027 43.893622 76.99373 52.528432 28.782703 7.915243 66.919784 12.232649 113.691675 12.952216l57.565406 0.857946c18.62573 0.276757 36.67027 0.470486 54.050594 0.553514zM1435.97485 267.623784l-31.660973 30.941405a857.28173 857.28173 0 0 1 94.263351 57.565406h-179.891892V738.940541h48.930595v-125.924325h120.167784v123.765622h48.211027V613.016216h120.887351v53.967568c0 15.830486-8.634811 24.465297-25.904432 24.465297l-56.845838-2.158703 11.513081 43.893622h59.724108c40.295784 0 60.443676-18.708757 60.443676-55.406703V356.130595h-142.474379l-11.513081-9.354379a786.598054 786.598054 0 0 0 140.315676-97.141621V212.217081H1302.882525v43.893622h319.488a684.198054 684.198054 0 0 1-103.617729 65.480648c-24.465297-17.989189-52.528432-35.978378-82.750271-53.967567z m-68.358919 239.616h120.167784v63.321946h-120.167784v-63.321946z m168.378811 0h120.887351v63.321946h-120.887351v-63.321946z m120.887351-43.174054h-120.887351v-64.761081h120.887351v64.761081z m-169.098378 0h-120.167784v-64.761081h120.167784v64.761081z m438.216648-25.904433h182.770162v125.924325h-182.770162v-125.924325z m-2.87827 173.415784h185.648432v210.833297h53.248v-210.833297h195.722379v125.204757c0 30.221838-13.671784 45.332757-39.576216 45.332757-24.465297 0-51.089297-1.439135-79.872-2.878271l13.671783 51.089298h82.750271c50.36973 0 75.554595-25.184865 75.554594-75.554595V215.814919h-536.077838v345.392432c-1.439135 98.580757-25.184865 179.891892-71.237189 243.933406l39.576216 35.258811c46.052324-60.443676 72.676324-136.717838 80.591568-228.822487z m434.618811-47.491459h-195.722379v-125.924325h195.722379v125.924325z m0-174.135352h-195.722379V266.184649h195.722379v123.765621z m-248.970379-123.765621v123.765621h-182.770162V266.184649h182.770162z m744.752433-83.469838c12.952216 27.343568 25.904432 58.284973 38.856648 92.824216h227.383352v241.774703H2656.38912c-3.597838 128.802595-37.417514 239.616-102.178595 332.440216l-38.137081-34.539243c58.284973-80.591568 87.787243-185.648432 89.226379-314.451027V275.539027h234.579027a764.457514 764.457514 0 0 0-41.734919-84.189405l55.406703-8.634811z m213.711567 143.913513H2656.38912v140.315676h410.873081v-140.315676z" fill="#FFFFFF" p-id="18858"></path></svg>
