<svg t="1709971442410" class="icon" viewBox="0 0 3413 1024" version="1.1" xmlns="http://www.w3.org/2000/svg" p-id="6793" width="200" height="80"><path d="M775.68 93.013333h2482.346667c82.773333 0 124.16 41.301333 124.16 123.818667V773.973333c0 82.517333-41.386667 123.733333-124.074667 123.733334H775.68c-82.773333 0-124.16-41.216-124.16-123.733334V216.746667c0-82.517333 41.386667-123.733333 124.16-123.733334z" fill="#FF0000" p-id="6794"></path><path d="M1627.306667 710.656l160-417.962667h-93.952l-98.048 299.946667c-2.56 6.656-6.656 18.005333-11.946667 34.048a32.768 32.768 0 0 0-2.048 7.936h-1.962667l-13.994666-41.984-104.021334-299.946667h-94.037333l162.048 417.962667h97.962667z m296.106666 0V292.693333h-88.064v417.962667h87.978667z m177.92 0V562.688h80.042667c109.226667 0 163.925333-46.08 163.925333-137.984-4.010667-85.333333-55.978667-129.365333-155.989333-132.010667h-173.994667v417.962667h86.016z m72.021334-215.978667h-72.021334v-133.973333h72.021334c52.053333 1.28 78.677333 23.296 79.957333 65.962667 0 44.032-26.624 66.645333-79.957333 68.010666z m283.989333 247.978667c36.010667-43.946667 58.026667-91.306667 65.962667-141.994667h218.026666v22.016c2.645333 27.989333-9.984 40.618667-37.973333 37.973334-32 0-59.989333-0.682667-84.053333-1.962667 6.656 18.602667 12.714667 42.666667 18.005333 71.936 46.677333 0 78.677333-0.597333 96-1.962667 57.344-2.645333 85.333333-33.28 84.053333-91.989333V284.672h-360.106666v169.984c0 64-3.925333 110.677333-11.946667 139.946667-7.936 29.44-24.661333 58.709333-50.005333 88.064l62.037333 59.989333z m283.989333-333.994667h-208.042666v-55.978666h208.042666v55.978666z m0 123.989334h-209.92l1.962667-55.978667h207.957333v55.978667zM267.690667 15.530667L31.061333 312.064H1210.026667L973.482667 15.530667z" fill="#FFFFFF" p-id="6795"></path><path d="M108.629333 312.064h1048.32l-536.405333 682.666667z" fill="#FEC6C6" p-id="6796"></path><path d="M620.629333 868.864l497.578667-556.117333-169.813333-204.117334H292.693333l-169.813333 204.117334 497.578667 556.117333zM249.173333 15.530667h742.826667l249.173333 299.434666-620.544 693.504L0 314.88 249.173333 15.36z" fill="#FF0000" p-id="6797"></path><path d="M404.053333 234.410667h154.282667l74.837333 244.736 77.482667-244.736h149.418667L696.149333 620.629333H564.821333z" fill="#FF0000" p-id="6798"></path></svg>
